<?xml version="1.0" encoding="UTF-8" standalone="no"?>
<svg
   xmlns:dc="http://purl.org/dc/elements/1.1/"
   xmlns:cc="http://creativecommons.org/ns#"
   xmlns:rdf="http://www.w3.org/1999/02/22-rdf-syntax-ns#"
   xmlns:svg="http://www.w3.org/2000/svg"
   xmlns="http://www.w3.org/2000/svg"
   xmlns:sodipodi="http://sodipodi.sourceforge.net/DTD/sodipodi-0.dtd"
   xmlns:inkscape="http://www.inkscape.org/namespaces/inkscape"
   inkscape:version="1.0 (4035a4fb49, 2020-05-01)"
   sodipodi:docname="Dreamcast_logo_no_text.svg"
   xml:space="preserve"
   enable-background="new 0 0 220 162"
   viewBox="0 0 220 162"
   height="162px"
   width="220px"
   y="0px"
   x="0px"
   id="Layer_1"
   version="1.1"><metadata
   id="metadata102"><rdf:RDF><cc:Work
       rdf:about=""><dc:format>image/svg+xml</dc:format><dc:type
         rdf:resource="http://purl.org/dc/dcmitype/StillImage" /><dc:title></dc:title></cc:Work></rdf:RDF></metadata><defs
   id="defs100" /><sodipodi:namedview
   inkscape:current-layer="Layer_1"
   inkscape:window-maximized="0"
   inkscape:window-y="38"
   inkscape:window-x="0"
   inkscape:cy="80.494176"
   inkscape:cx="89.226293"
   inkscape:zoom="11.45679"
   showgrid="false"
   id="namedview98"
   inkscape:window-height="2120"
   inkscape:window-width="3838"
   inkscape:pageshadow="2"
   inkscape:pageopacity="0"
   guidetolerance="10"
   gridtolerance="10"
   objecttolerance="10"
   borderopacity="1"
   bordercolor="#666666"
   pagecolor="#ffffff" />










<path
   style="stroke-width:1.40636"
   id="path95"
   d="m 129.45393,4.6229378 c 6.64582,0.9879408 13.43299,3.2856729 16.97215,4.3575747 7.13062,2.1577965 18.7064,8.8648795 22.79397,12.0819845 1.93353,1.521093 5.99989,5.505041 7.57443,7.510309 1.53354,1.953492 4.46353,6.185125 6.33346,8.792114 2.97522,4.303 6.47904,10.712021 9.45143,16.61028 3.32009,6.589537 3.54765,8.49825 4.55116,14.007489 l 2.19502,9.711487 c 0.20636,1.679219 0.37738,7.839156 -3.27486,8.702555 -3.65082,0.863398 -7.02603,-0.804626 -8.61752,-3.242293 -2.20208,-3.373832 -1.8982,-8.162407 -4.38862,-13.643659 -1.94202,-4.430341 -2.79147,-10.868748 -5.89248,-15.499196 l -2.43247,-4.072108 c -4.30382,-6.560151 -8.78996,-11.767131 -11.46553,-15.163352 -2.35615,-2.853274 -6.75607,-6.732271 -10.92703,-9.491789 -3.85718,-2.315923 -10.09312,-4.956496 -14.59057,-6.316664 -1.43319,-0.461785 -7.56736,-2.247355 -11.37931,-2.749722 -5.17306,-0.575132 -8.57654,-1.385356 -13.49236,-1.728197 -6.06915,-0.424002 -8.98077,-0.958554 -16.853428,-0.04758 -2.98228,0.800428 -7.70729,1.11808 -11.96022,2.728731 -3.43457,1.386756 -8.21188,3.627115 -12.891657,6.34885 -5.035958,2.734329 -12.68106,8.32613 -17.75094,13.100711 -5.109455,5.405687 -7.664889,8.306539 -11.188505,15.159154 -1.560398,3.390624 -4.578016,8.635386 -5.794957,12.338066 -0.831081,3.758653 -2.41692,10.769394 -2.149787,14.174012 0.120139,6.099765 -0.418368,7.356381 0.04382,12.342263 0.01696,4.489114 1.505276,7.601268 2.124347,11.273172 0.530026,2.53702 2.987936,11.31514 4.508758,13.35259 6.912959,14.74635 16.191956,21.13298 26.532419,25.73964 2.914439,1.46931 12.035142,3.88599 14.673962,4.57867 4.49887,0.80323 10.41962,1.33918 16.11846,1.44833 5.995648,0.11614 14.259828,-0.68848 19.274578,-2.51604 5.42747,-1.97588 11.70299,-4.78437 11.6309,-4.70601 2.51869,-1.37416 6.36173,-3.61732 7.55889,-4.60386 2.31374,-1.46792 3.70735,-2.03605 5.07836,-3.44939 1.97735,-1.71281 3.1745,-2.69935 4.67271,-4.82216 0.83391,-1.19645 2.15827,-3.0282 3.44871,-4.64724 1.38796,-2.25156 2.18513,-4.62485 3.54057,-7.56069 1.62119,-4.34218 1.36959,-4.13368 1.67771,-8.74593 0.29116,-1.33638 -0.0311,-5.8283 -0.27561,-6.590948 -0.73073,-4.144874 -0.47208,-7.801375 -1.43037,-11.825904 -1.29467,-5.444869 -2.37027,-9.519775 -4.02254,-14.743548 -1.55333,-5.881466 -6.1158,-11.330533 -9.54048,-15.222125 -2.12152,-2.412478 -8.70374,-8.11063 -17.83574,-11.669176 -2.57099,-0.856402 -6.7801,-1.827551 -9.45285,-2.310326 -5.70591,-0.590526 -6.63452,-0.211302 -12.09732,0.184714 -1.879828,0.324649 -6.244418,1.207639 -7.848638,1.765979 -4.6925,1.631642 -6.41826,2.66856 -11.21536,5.577808 -2.23317,1.283203 -3.91654,2.265547 -6.19919,4.384162 -1.82187,1.669424 -3.123614,4.507305 -4.599208,6.171132 -2.021167,2.723134 -4.271306,6.355846 -5.780822,10.274025 -1.636722,3.897188 -2.163921,9.384038 -1.915162,12.914597 0,2.690949 0.73921,7.61666 1.033198,8.694159 0.292575,1.078899 1.027545,4.423344 1.187259,5.095032 0.159715,0.670289 1.916576,4.209249 2.158268,4.721409 0.990796,2.08783 2.887585,5.08804 6.083287,8.15122 2.35756,2.54961 6.91578,5.05165 10.32774,6.0214 3.06002,1.66242 8.22036,1.94509 11.07543,1.95069 1.40493,-0.084 4.99356,-0.30226 6.866318,-0.74725 3.79782,-0.90258 4.49887,-0.92637 8.41258,-2.60979 3.51231,-1.61205 5.89531,-2.19278 8.34191,-3.98255 0,0 3.35825,-2.60559 4.88473,-4.5115 0.80564,-1.00613 2.18653,-5.80031 1.9406,-8.769733 -0.11449,-4.06511 0.48338,-6.371239 -0.35477,-9.715684 -0.83814,-3.344446 -2.26851,-7.220644 -3.81901,-9.609334 -1.57029,-2.419475 -4.94692,-4.77738 -8.78996,-6.653907 -2.1512,-1.052311 -7.24935,-2.027658 -9.41186,-2.28094 -4.108758,-0.482776 -7.544748,1.362966 -9.630928,3.474585 -1.80916,2.047248 -5.38507,6.299872 -3.96036,10.696628 1.28902,3.978351 2.84518,8.216981 8.87194,7.902128 4.135618,0.852203 8.919988,-0.384822 10.512888,0.341441 2.36463,1.329382 3.27345,4.265218 2.4141,6.312466 -0.59929,3.94757 -4.4183,4.42055 -8.49456,4.72141 -3.646578,0.60452 -12.908618,-1.16286 -14.943918,-2.67276 -1.36535,-0.80322 -3.45577,-2.732932 -4.92854,-4.035726 -1.05864,-0.937565 -2.25721,-3.028193 -3.07557,-4.529695 -1.00493,-1.844343 -1.51234,-3.201712 -1.77099,-4.403753 -0.30671,-1.427337 -0.9385,-4.151871 -0.69964,-6.876404 0.16113,-1.837346 0.65865,-2.619583 1.15334,-5.306334 0.98514,-3.046384 2.20915,-5.365107 4.17802,-8.007079 2.56533,-2.577602 5.82323,-5.646375 9.00339,-7.072313 2.80419,-1.466518 7.71718,-2.006667 12.162338,-1.749187 3.60559,0.341442 7.87124,0.776639 10.69098,1.712804 4.82678,1.707207 6.20626,2.047249 10.16803,4.521299 3.34836,2.051446 6.7165,5.825492 8.59633,8.951639 3.99852,8.100835 6.29247,17.112647 4.62465,29.243619 -0.1371,2.05004 -0.78161,4.05251 -2.07205,6.76585 -1.1915,2.50484 -3.28192,5.55122 -6.41826,7.84476 -1.26359,1.15726 -3.25507,2.5818 -4.87625,3.41581 -2.30102,1.38256 -3.8487,2.10182 -6.25148,3.29687 -2.1088,0.98094 -4.56671,2.10322 -7.77231,2.98481 -3.47415,1.36017 -6.13983,1.41614 -10.508658,2.06124 -4.30099,1.0677 -16.06758,0.30506 -23.07665,-2.75532 -4.784363,-1.99127 -10.152472,-5.50224 -14.232969,-9.78145 -2.2671,-2.35231 -4.484731,-6.62033 -5.13631,-7.49352 -3.245175,-6.17673 -3.881207,-11.986835 -4.40134,-13.207068 -0.706702,-1.65823 -1.058639,-5.376301 -1.532129,-7.920319 -0.534267,-2.851875 -0.203531,-14.812116 2.705255,-22.488948 1.639548,-3.056179 2.59925,-5.780713 3.708772,-7.212248 1.994313,-2.808494 2.958254,-4.563279 4.654339,-6.554553 2.556848,-3.070173 4.418301,-5.575009 6.908718,-7.340988 6.346174,-5.109026 11.647854,-7.804173 18.818054,-11.176606 8.9101,-3.59213 11.58567,-2.849075 20.018038,-2.716137 3.79358,0.03219 9.31433,1.213236 12.02807,1.703008 5.0402,0.664691 7.92778,1.866733 11.33691,2.808495 3.64517,1.007532 5.75256,2.615384 8.74332,4.405152 2.46215,1.574269 5.35963,3.730667 7.27338,5.481253 4.89603,3.554348 7.25782,7.290611 10.25848,11.879079 0.54416,0.769642 4.10735,8.288348 4.67554,10.381775 0.26289,1.048112 1.06995,4.058113 1.58725,5.817096 0.66572,2.790303 0.98797,5.261554 1.73001,8.410091 0.6643,3.243693 1.79502,9.368646 2.28547,15.093385 0.82402,4.910323 -0.4961,14.933863 -1.27489,18.011033 -1.73424,5.73734 -4.76741,12.73968 -10.75741,19.48315 -2.54413,2.98621 -5.24939,5.30073 -8.37442,7.81257 -2.39007,1.97448 -4.44092,3.12334 -8.13273,5.30633 -5.01475,2.96242 -8.83095,4.85434 -15.8598,7.57468 -2.86215,0.90958 -6.46774,2.10602 -10.3546,2.90225 -7.5292,0.68848 -15.266178,1.34897 -23.711268,0.35544 -8.4465,-0.99494 -16.90713,-3.35145 -21.904924,-4.87114 -2.757552,-1.02432 -8.100218,-3.24229 -10.340464,-4.43594 -1.457219,-0.73326 -6.343357,-4.04132 -7.173025,-4.83755 -3.348354,-2.05145 -10.842221,-9.0286 -15.680303,-15.53278 -1.060053,-2.00947 -4.872003,-8.03926 -5.698845,-10.68124 -2.197843,-4.46812 -3.729973,-9.87241 -4.630311,-12.18134 -0.949807,-5.38889 -2.554021,-8.859284 -3.180159,-14.26917 0.07208,-1.273408 -0.258653,-4.269416 -0.549814,-5.927645 0.425435,-3.702679 -0.142754,-7.192657 0.599283,-11.222784 0.651579,-3.401819 1.515169,-4.822159 1.720113,-7.89653 0.200703,-1.315388 1.910922,-5.27135 2.366038,-7.031732 1.379482,-2.899452 1.722939,-5.288142 3.523616,-8.527636 2.59501,-5.048854 5.307332,-10.857554 9.47546,-15.931595 1.190086,-1.572869 4.565295,-5.346915 5.715806,-6.655307 2.719389,-2.69095 4.315122,-3.116352 7.399169,-5.817097 0.320843,-0.200107 2.357558,-2.499238 4.490385,-3.289871 3.534923,-2.703543 6.589289,-3.695682 9.95319,-6.154339 6.741935,-3.324855 9.199845,-4.4471328 15.892305,-7.2038516 3.86708,-1.3657652 9.26063,-2.121414 11.20264,-2.8672673 3.69464,-0.2266947 7.444398,-1.3937522 11.331258,-1.1614602 4.36318,-0.040581 8.76028,0.2672758 13.14466,0.6618924 2.96673,0.1805161 6.82391,0.3232497 12.05634,1.4469275 z"
   fill="#cf3311" />
</svg>
